<svg width="300" height="400" viewBox="0 0 300 400" fill="none" xmlns="http://www.w3.org/2000/svg">
  <!-- Background gradient overlay -->
  <defs>
    <linearGradient id="bgGradient" x1="0%" y1="0%" x2="100%" y2="100%">
      <stop offset="0%" style="stop-color:#F7960F;stop-opacity:0.8"/>
      <stop offset="100%" style="stop-color:#FF8C00;stop-opacity:0.9"/>
    </linearGradient>
    <linearGradient id="busGradient" x1="0%" y1="0%" x2="100%" y2="100%">
      <stop offset="0%" style="stop-color:#FFFFFF;stop-opacity:0.9"/>
      <stop offset="100%" style="stop-color:#F0F8FF;stop-opacity:0.8"/>
    </linearGradient>
  </defs>
  
  <rect width="300" height="400" fill="url(#bgGradient)"/>
  
  <!-- Road -->
  <path d="M0 300 Q150 280 300 300 L300 400 L0 400 Z" fill="rgba(255,255,255,0.1)"/>
  <path d="M0 320 Q150 300 300 320 L300 400 L0 400 Z" fill="rgba(255,255,255,0.05)"/>
  
  <!-- Bus Stop -->
  <rect x="220" y="200" width="60" height="100" fill="rgba(255,255,255,0.2)" rx="4"/>
  <rect x="225" y="180" width="50" height="20" fill="rgba(255,255,255,0.3)" rx="10"/>
  
  <!-- Main Bus -->
  <g transform="translate(80, 180)">
    <rect x="0" y="20" width="120" height="60" rx="8" fill="url(#busGradient)" stroke="rgba(255,255,255,0.3)" stroke-width="2"/>
    
    <!-- Windows -->
    <rect x="10" y="30" width="18" height="15" rx="2" fill="rgba(135,206,250,0.6)"/>
    <rect x="32" y="30" width="18" height="15" rx="2" fill="rgba(135,206,250,0.6)"/>
    <rect x="54" y="30" width="18" height="15" rx="2" fill="rgba(135,206,250,0.6)"/>
    <rect x="76" y="30" width="18" height="15" rx="2" fill="rgba(135,206,250,0.6)"/>
    <rect x="98" y="30" width="18" height="15" rx="2" fill="rgba(135,206,250,0.6)"/>
    
    <!-- Door -->
    <rect x="15" y="50" width="15" height="25" rx="2" fill="rgba(247,150,15,0.8)"/>
    <circle cx="27" cy="60" r="1" fill="white"/>
    
    <!-- Wheels -->
    <circle cx="30" cy="90" r="12" fill="rgba(0,0,0,0.3)"/>
    <circle cx="30" cy="90" r="8" fill="rgba(255,255,255,0.2)"/>
    <circle cx="90" cy="90" r="12" fill="rgba(0,0,0,0.3)"/>
    <circle cx="90" cy="90" r="8" fill="rgba(255,255,255,0.2)"/>
    
    <!-- Front -->
    <rect x="-5" y="25" width="5" height="50" rx="2" fill="rgba(255,255,255,0.4)"/>
    <circle cx="-2" cy="40" r="2" fill="rgba(255,255,255,0.6)"/>
  </g>
  
  <!-- People waiting -->
  <g transform="translate(240, 220)">
    <!-- Person 1 -->
    <circle cx="0" cy="0" r="8" fill="rgba(255,255,255,0.7)"/>
    <rect x="-5" y="5" width="10" height="20" rx="2" fill="rgba(255,255,255,0.6)"/>
    <rect x="-3" y="25" width="6" height="15" rx="1" fill="rgba(255,255,255,0.6)"/>
  </g>
  
  <!-- Route lines/map elements -->
  <path d="M50 100 Q150 80 250 100" stroke="rgba(255,255,255,0.3)" stroke-width="2" fill="none" stroke-dasharray="5,5"/>
  <circle cx="50" cy="100" r="4" fill="rgba(255,255,255,0.5)"/>
  <circle cx="150" cy="80" r="4" fill="rgba(255,255,255,0.5)"/>
  <circle cx="250" cy="100" r="4" fill="rgba(255,255,255,0.5)"/>
  
  <!-- Location pins -->
  <g transform="translate(50, 90)">
    <path d="M0 10 C-5 5 -5 -5 0 -10 C5 -5 5 5 0 10 Z" fill="rgba(255,255,255,0.8)"/>
    <circle cx="0" cy="-3" r="3" fill="#F7960F"/>
  </g>
  
  <!-- Digital elements -->
  <rect x="20" y="50" width="60" height="30" rx="4" fill="rgba(255,255,255,0.2)" stroke="rgba(255,255,255,0.3)" stroke-width="1"/>
  <rect x="25" y="55" width="50" height="3" rx="1" fill="rgba(255,255,255,0.4)"/>
  <rect x="25" y="62" width="35" height="3" rx="1" fill="rgba(255,255,255,0.3)"/>
  <rect x="25" y="69" width="25" height="3" rx="1" fill="rgba(255,255,255,0.3)"/>
</svg>
